<svg width="105" height="48" viewBox="0 0 105 48" fill="none" xmlns="http://www.w3.org/2000/svg">
<g clip-path="url(#clip0_1419_1449)">
<path d="M80.4677 11.3083C80.4815 9.89998 79.3651 8.74693 77.9741 8.73292C76.583 8.71891 75.4442 9.84924 75.4303 11.2576C75.4165 12.6659 76.5329 13.819 77.9239 13.833C79.315 13.847 80.4538 12.7167 80.4677 11.3083Z" fill="#2FA6D9"/>
<path d="M49.9143 24.2005L49.8307 24.4487C49.6579 24.9678 49.3626 25.4812 48.9447 25.972C48.5212 26.4685 48.0029 26.9199 47.3899 27.3148C46.7769 27.7098 46.0915 28.0313 45.3392 28.2683C44.5925 28.5053 43.8012 28.6294 42.9932 28.6294C42.0291 28.6294 41.1319 28.4263 40.3295 28.0201C39.5271 27.6195 38.8249 27.0553 38.2398 26.3444C37.6547 25.6335 37.1922 24.7816 36.8745 23.8055C36.5792 22.8972 36.412 21.9042 36.3897 20.8491H50.8672V20.584C50.8672 19.5628 50.6443 18.5698 50.2041 17.6389C49.7638 16.7136 49.1508 15.8842 48.3707 15.1733C47.5961 14.4624 46.6543 13.8926 45.5788 13.4807C44.5033 13.0632 43.2997 12.8545 42.0013 12.8545C40.5357 12.8545 39.1871 13.114 37.9946 13.6218C36.8021 14.1296 35.76 14.8461 34.9074 15.7432C34.0492 16.6459 33.3805 17.7291 32.918 18.9647C32.4555 20.2003 32.2214 21.56 32.2214 23.01C32.2214 24.24 32.4833 25.4022 32.9904 26.4798C33.4976 27.5461 34.2053 28.494 35.0913 29.2895C35.9718 30.0794 37.0138 30.7113 38.1841 31.1683C39.3543 31.6253 40.6248 31.8509 41.9623 31.8509C42.9876 31.8509 44.013 31.6704 45.0104 31.315C46.0024 30.9595 46.933 30.4743 47.78 29.8706C48.627 29.2669 49.3682 28.5448 49.9923 27.721C50.6164 26.8973 51.0845 26.0059 51.3743 25.075L51.4523 24.8324L49.9254 24.2061L49.9143 24.2005ZM45.5566 18.9027H36.4399C36.5123 18.3723 36.6628 17.8758 36.8801 17.4132C37.142 16.8659 37.4764 16.3807 37.8664 15.9801C38.2509 15.5796 38.7023 15.258 39.2038 15.0323C40.3128 14.5358 41.5945 14.6204 42.6588 15.0323C43.2384 15.2636 43.751 15.5796 44.1801 15.9858C44.6092 16.3864 44.9491 16.8659 45.1943 17.4075C45.4061 17.8702 45.5231 18.3723 45.5566 18.9027Z" fill="#2FA6D9"/>
<path d="M101.678 24.2005L101.594 24.4487C101.421 24.9678 101.126 25.4812 100.708 25.972C100.285 26.4685 99.7663 26.9199 99.1533 27.3148C98.5404 27.7098 97.8549 28.0313 97.1026 28.2683C96.3559 28.5053 95.5646 28.6294 94.7566 28.6294C93.7926 28.6294 92.8954 28.4263 92.0929 28.0201C91.2905 27.6195 90.5883 27.0553 90.0032 26.3444C89.4181 25.6335 88.9556 24.7816 88.6379 23.8055C88.3426 22.8972 88.1754 21.9042 88.1531 20.8491H102.631V20.584C102.631 19.5628 102.408 18.5698 101.967 17.6389C101.527 16.7136 100.914 15.8842 100.134 15.1733C99.3595 14.4624 98.4178 13.8926 97.3423 13.4807C96.2668 13.0632 95.0631 12.8545 93.7647 12.8545C92.2991 12.8545 90.9506 13.114 89.758 13.6218C88.5655 14.1296 87.5234 14.8461 86.6708 15.7432C85.8127 16.6459 85.144 17.7291 84.6814 18.9647C84.2189 20.2003 83.9849 21.56 83.9849 23.01C83.9849 24.24 84.2468 25.4022 84.7539 26.4798C85.261 27.5461 85.9687 28.494 86.8547 29.2895C87.7352 30.0794 88.7773 30.7113 89.9475 31.1683C91.1177 31.6253 92.3883 31.8509 93.7257 31.8509C94.751 31.8509 95.7764 31.6704 96.7739 31.315C97.7658 30.9595 98.6964 30.4743 99.5434 29.8706C100.39 29.2669 101.132 28.5448 101.756 27.721C102.38 26.8973 102.848 26.0059 103.138 25.075L103.216 24.8324L101.689 24.2061L101.678 24.2005ZM97.3256 18.9027H88.2089C88.2813 18.3723 88.4318 17.8758 88.6491 17.4132C88.911 16.8659 89.2454 16.3807 89.6354 15.9801C90.0199 15.5796 90.4713 15.258 90.9728 15.0323C92.0818 14.5358 93.3635 14.6204 94.4278 15.0323C95.0074 15.2636 95.52 15.5796 95.9491 15.9858C96.3782 16.3864 96.7181 16.8659 96.9633 17.4075C97.1751 17.8702 97.2921 18.3723 97.3256 18.9027Z" fill="#2FA6D9"/>
<path d="M71.4857 16.9278C71.2071 16.2733 70.8226 15.6978 70.3378 15.2126C69.853 14.7274 69.2846 14.3381 68.6493 14.0504C68.0085 13.7626 67.3063 13.6216 66.5708 13.6216C65.172 13.6216 63.7845 13.915 62.4471 14.4961C61.2657 15.0095 60.101 15.7712 58.9865 16.7642V13.9714H54.4839V31.8451H58.9865V18.7388C59.4045 18.406 59.8391 18.1013 60.2849 17.8248C60.7586 17.5371 61.2434 17.2832 61.7226 17.0801C62.2019 16.877 62.6755 16.7134 63.1325 16.6005C63.5839 16.4877 64.0185 16.4313 64.4253 16.4313C65.3114 16.4313 66.0135 16.6908 66.5652 17.2211C67.1057 17.7402 67.3843 18.5357 67.3843 19.5908V31.8507H71.9093V19.0322C71.9093 18.2931 71.7699 17.5879 71.4913 16.9334L71.4857 16.9278Z" fill="#2FA6D9"/>
<path d="M75.6985 16.8151V31.8452H80.1788V14.9814L75.6985 16.8151Z" fill="#2FA6D9"/>
<path d="M29.6079 30.7339C26.9832 28.5392 23.4669 27.298 20.1011 26.9651C19.633 26.9199 14.5731 26.6435 12.684 26.446C10.7448 26.2429 8.66624 26.1921 6.87745 25.2499C6.45951 25.0299 6.05271 24.7478 5.79637 24.319C5.27256 23.4445 5.7295 22.4346 6.3592 21.7858C6.62669 21.5093 6.9276 21.2159 7.28982 21.0975C7.73562 20.9564 7.95295 21.199 8.32074 21.3344C10.5888 23.1568 13.7986 24.2908 17.3594 24.2908C24.2304 24.2908 29.7974 20.065 29.7974 14.8574C29.7974 11.6754 27.7188 8.86569 24.5424 7.15618C25.2724 6.51864 25.8353 6.19705 26.4092 6.07857C26.582 6.03908 26.7715 6.06729 26.9944 6.13499L27.3287 6.28732C27.8804 6.50736 28.4767 6.61456 29.0952 6.61456C29.9757 6.61456 30.7781 6.37195 31.4858 5.89239C32.3106 5.33383 32.7229 4.60602 32.7229 3.71459C32.7229 3.12219 32.5558 2.59749 32.2326 2.14613C31.9205 1.7117 31.4858 1.35626 30.9509 1.09673L30.7113 0.978245C30.4661 0.865406 30.1986 0.780776 29.92 0.713073C28.6828 0.414049 27.6241 0.724357 26.6823 1.45781C25.8687 2.08971 25.4563 2.87958 25.4563 3.79358C25.4563 3.98541 25.4786 4.16595 25.5121 4.34085H25.5065C25.5344 4.63423 25.3672 4.7245 23.7957 6.13499L23.3109 6.56942C21.5444 5.83597 19.516 5.41846 17.3594 5.41846C10.4885 5.41846 4.92148 9.64429 4.92148 14.8518C4.92148 16.3526 5.38401 17.7743 6.20874 19.0325C6.23103 19.1453 6.24775 19.2582 6.23661 19.371C6.21432 19.6757 6.04157 19.8619 5.86325 20.0875C5.48431 20.5615 5.03294 20.9677 4.65957 21.4416C4.33079 21.8648 4.04659 22.3556 3.81812 22.8465C3.27758 24.0031 3.02682 25.3402 3.24972 26.6209C3.27758 26.7733 3.31102 26.9256 3.35002 27.0779C3.70667 28.4151 4.59828 29.4983 5.66821 30.2713C5.90783 30.4462 6.15859 30.6098 6.41493 30.7508C8.187 31.7269 10.2767 32.1444 12.2382 32.3306C14.4115 32.5393 17.7829 32.4829 18.0783 32.4773C20.9091 32.4491 23.9518 33.081 26.3591 34.6438C28.2092 35.8399 29.8029 37.8653 29.1621 40.2124C27.9696 44.5736 21.8119 45.8092 18.056 45.8092C11.8426 45.8092 6.79943 42.8246 6.79943 39.1461C6.79943 36.7257 8.98945 34.6099 12.255 33.442C11.2965 33.1543 10.2266 32.9907 9.09533 32.9907C5.05523 32.9907 1.77856 35.0331 1.77856 37.555C1.77856 40.2575 3.86827 42.9036 6.81615 44.6865C7.22852 44.9178 7.65204 45.1322 8.08112 45.3296C11.0401 46.6555 14.367 47.372 17.6826 47.389C24.2527 47.2987 29.8252 44.5228 31.9818 40.6581C33.9768 37.0811 32.5279 33.1825 29.5967 30.7283L29.6079 30.7339ZM28.0922 1.90352C28.2983 1.54244 28.6327 1.3619 29.1008 1.3619C29.619 1.3619 29.9701 1.54808 30.1707 1.93173C30.3602 2.28718 30.4549 2.85702 30.4549 3.61868C30.4549 4.42548 30.3435 5.01788 30.1206 5.37333C29.92 5.69492 29.5856 5.85289 29.0952 5.85289C28.5491 5.85289 28.198 5.7062 28.0309 5.40718C27.8358 5.06866 27.7411 4.46497 27.7411 3.61304C27.7411 2.87958 27.8581 2.3041 28.0866 1.89788L28.0922 1.90352ZM11.9875 14.8631C11.9875 10.2536 14.4004 6.513 17.3706 6.513C20.3407 6.513 22.7537 10.248 22.7537 14.8631C22.7537 19.4726 20.3407 23.2132 17.3706 23.2132C14.4004 23.2132 11.9875 19.4782 11.9875 14.8687V14.8631Z" fill="#2FA6D9"/>
<path d="M44.1023 37.899C44.1023 37.6395 44.3029 37.521 44.5871 37.521C44.8713 37.521 45.0607 37.6395 45.0607 37.899V44.2293C45.0607 44.5904 44.8601 44.8104 44.4533 44.8104C44.0187 44.8104 43.8571 44.6524 43.6063 44.2857L40.9259 40.3363C40.5191 39.7496 40.0176 38.8412 39.7835 38.3842C39.8448 38.971 39.9228 40.2517 39.9228 41.6058V44.4324C39.9228 44.6806 39.7222 44.8104 39.4492 44.8104C39.1761 44.8104 38.9644 44.6806 38.9644 44.4324V38.0795C38.9644 37.741 39.2095 37.5266 39.5996 37.5266C40.0566 37.5266 40.2238 37.6903 40.4188 37.9667L42.9654 41.7355C43.428 42.4239 43.9964 43.4112 44.2583 43.9246C44.197 43.3548 44.0967 42.0176 44.0967 40.6918V37.899H44.1023Z" fill="#595757"/>
<path d="M47.5796 43.6538C47.5796 43.8682 47.7301 43.9472 47.953 43.9472H51.5696C51.8315 43.9472 51.9764 44.1108 51.9764 44.3421C51.9764 44.5734 51.837 44.7483 51.5696 44.7483H47.6576C46.9388 44.7483 46.6267 44.4606 46.6267 43.761V38.5648C46.6267 37.8539 46.9388 37.5718 47.6576 37.5718H51.4804C51.7423 37.5718 51.8872 37.7354 51.8872 37.9667C51.8872 38.198 51.7479 38.3729 51.4804 38.3729H47.9195C47.6743 38.3729 47.574 38.4745 47.574 38.6945V40.6015H51.0235C51.2742 40.6015 51.4191 40.7651 51.4191 40.9964C51.4191 41.2108 51.2686 41.3857 51.0235 41.3857H47.574V43.6538H47.5796Z" fill="#595757"/>
<path d="M53.3527 38.3839C53.1019 38.3839 52.957 38.1978 52.957 37.989C52.957 37.7803 53.0963 37.5771 53.3415 37.5771H58.9085C59.1537 37.5771 59.293 37.769 59.293 37.989C59.293 38.209 59.1426 38.3839 58.9085 38.3839H56.6126V44.4265C56.6126 44.6747 56.4009 44.8045 56.1278 44.8045C55.8548 44.8045 55.643 44.6747 55.643 44.4265V38.3839H53.3471H53.3527Z" fill="#595757"/>
<path d="M63.5671 44.3645C63.4668 44.6973 63.2216 44.8045 62.8984 44.8045C62.5752 44.8045 62.3245 44.6861 62.2186 44.3532L60.3072 38.0173C60.2961 37.9721 60.2849 37.927 60.2849 37.8875C60.2849 37.6731 60.4744 37.5659 60.7084 37.5264C60.7586 37.5151 60.7976 37.5151 60.8477 37.5151C61.0372 37.5151 61.2211 37.5885 61.2824 37.8085L62.5474 42.1585C62.6867 42.6437 62.8204 43.4956 62.9096 43.9639C62.9987 43.4843 63.1436 42.655 63.2829 42.1697L64.4866 37.9214C64.5702 37.6336 64.7987 37.5151 65.1442 37.5151C65.4674 37.5151 65.7014 37.6336 65.7794 37.927L66.9831 42.1754C67.1169 42.638 67.245 43.49 67.3398 43.9695C67.4401 43.473 67.5905 42.6324 67.7243 42.181L69.0004 37.8085C69.0728 37.5885 69.2456 37.5151 69.4573 37.5151C69.4963 37.5151 69.5465 37.5151 69.5911 37.5264C69.8251 37.5659 70.0146 37.6731 70.0146 37.8762C70.0146 37.9157 70.0034 37.9496 69.9923 37.9891L68.0085 44.3645C67.9082 44.6861 67.6574 44.8045 67.3286 44.8045C67.0277 44.8045 66.7546 44.6917 66.6599 44.3532L65.5064 40.2176C65.3448 39.6478 65.2333 38.8466 65.1442 38.3389C65.0439 38.8466 64.9213 39.6309 64.7597 40.2007L63.556 44.3645H63.5671Z" fill="#595757"/>
<path d="M77.766 41.1656C77.766 43.4337 76.4119 44.895 74.2498 44.895C72.0876 44.895 70.7112 43.4393 70.7112 41.1544C70.7112 38.8694 72.0765 37.4307 74.2498 37.4307C76.423 37.4307 77.766 38.8863 77.766 41.16V41.1656ZM71.7142 41.1656C71.7142 42.9429 72.7062 44.0938 74.2498 44.0938C75.7933 44.0938 76.7685 42.9598 76.7685 41.1092C76.7685 39.3659 75.7878 38.2262 74.2498 38.2262C72.7117 38.2262 71.7142 39.3884 71.7142 41.1656Z" fill="#595757"/>
<path d="M84.9825 44.263C85.0048 44.3194 85.0104 44.3646 85.0104 44.421C85.0104 44.5959 84.8767 44.7313 84.6761 44.7821C84.6036 44.799 84.5256 44.8103 84.4532 44.8103C84.2804 44.8103 84.13 44.737 84.0575 44.5733L83.8067 43.9866C83.0767 42.1924 82.7981 41.538 81.7839 41.538H79.9227V44.4323C79.9227 44.6918 79.7332 44.8216 79.4602 44.8216C79.1871 44.8216 78.9753 44.6918 78.9753 44.4266V38.5872C78.9753 37.8763 79.2874 37.5942 80.0063 37.5942H82.369C83.8346 37.5942 84.6426 38.3051 84.6426 39.4335C84.6426 40.4942 83.9851 41.0471 83.0433 41.2277C83.6507 41.3913 83.9739 42.0119 84.7206 43.7327L84.9714 44.2743L84.9825 44.263ZM82.2576 40.7707C83.1157 40.7707 83.6842 40.2798 83.6842 39.5464C83.6842 38.7621 83.2216 38.339 82.3189 38.339H80.2682C80.0564 38.339 79.9338 38.4405 79.9338 38.6606V40.7707H82.2576Z" fill="#595757"/>
<path d="M91.7753 44.1106C91.8366 44.184 91.8645 44.2686 91.8645 44.3476C91.8645 44.4886 91.7754 44.6241 91.6416 44.7143C91.5524 44.7764 91.4521 44.8046 91.3407 44.8046C91.2069 44.8046 91.0676 44.7482 90.984 44.6466L88.1253 41.1825L87.022 42.2037V44.4153C87.022 44.6635 86.8213 44.7933 86.5483 44.7933C86.2752 44.7933 86.0635 44.6635 86.0635 44.4153V37.8876C86.0635 37.628 86.2641 37.5095 86.5483 37.5095C86.8325 37.5095 87.022 37.628 87.022 37.8876V41.1035L90.6831 37.6224C90.7611 37.5378 90.8837 37.5039 90.9952 37.5039C91.1178 37.5039 91.2404 37.5434 91.3295 37.6167C91.441 37.7014 91.5023 37.8368 91.5023 37.9665C91.5023 38.0568 91.4744 38.1527 91.402 38.2148L88.794 40.607L91.7753 44.105V44.1106Z" fill="#595757"/>
<path d="M95.8379 40.6861C97.4149 40.9907 98.2731 41.4759 98.2731 42.8131C98.2731 44.0035 97.27 44.895 95.4645 44.895C93.1575 44.895 92.6838 43.8061 92.4442 43.0613C92.433 43.0162 92.4219 42.9767 92.4219 42.9429C92.4219 42.7397 92.5946 42.6043 92.8064 42.5536C92.8677 42.5423 92.9178 42.5366 92.9791 42.5366C93.1686 42.5366 93.3636 42.6213 93.4249 42.8131C93.6088 43.4281 93.9376 44.122 95.4143 44.122C96.5679 44.122 97.2867 43.6142 97.2867 42.8244C97.2867 42.0345 96.8298 41.7355 95.6372 41.5154L94.8292 41.3575C93.3135 41.0697 92.6281 40.545 92.6281 39.3376C92.6281 38.3729 93.4194 37.4307 95.3196 37.4307C97.2198 37.4307 97.766 38.3164 97.9889 38.9766C98.0111 39.0217 98.0167 39.0668 98.0167 39.1176C98.0167 39.3094 97.844 39.4505 97.6434 39.4843C97.5932 39.4956 97.5319 39.5013 97.4706 39.5013C97.2867 39.5013 97.1084 39.4279 97.0248 39.2361C96.8632 38.7114 96.4397 38.198 95.314 38.198C94.1884 38.198 93.6033 38.734 93.6033 39.3376C93.6033 40.0034 93.9543 40.3419 95.0911 40.545L95.8379 40.6804V40.6861Z" fill="#595757"/>
</g>
<defs>
<clipPath id="clip0_1419_1449">
<rect width="101.42" height="46.8" fill="white" transform="translate(1.78979 0.600098)"/>
</clipPath>
</defs>
</svg>
